<svg width="695" height="693" viewBox="0 0 695 693" fill="none" xmlns="http://www.w3.org/2000/svg">
<rect width="695" height="693" rx="346.5" fill="#2F6191"/>
<path d="M513.369 190.991C447.13 151.784 316.004 108.521 180.822 190.991C180.822 190.991 149.731 437.049 344.392 506C533.646 449.217 513.369 190.991 513.369 190.991Z" fill="#4A759E"/>
<path d="M360.425 104.315L376.075 105.783C484.644 118.079 573.373 205.619 588.114 313.63L590.28 335.568V357.226L588.114 378.465C566.666 529.373 411.985 625.646 266.457 573.876C173.956 540.9 106.676 451.054 105.419 351.986C105.419 350.798 105.838 348.912 104.72 348.143C104.72 346.746 104.72 345.349 104.72 343.952C109.401 216.658 205.535 110.953 334.575 104.315H360.425ZM339.326 117.101C144.263 125.554 45.4048 356.807 179.825 501.846C294.193 625.297 497.08 586.033 560.587 431.981C623.536 279.117 503.368 109.975 339.326 117.101Z" fill="white"/>
<path d="M414.919 256.621C395.567 274.925 365.944 285.056 354.207 310.836C350.5 318 349.945 321.944 349.945 324.739V337.664C352.74 334.31 354.067 329.49 356.373 325.577C373.14 296.723 402.763 290.924 427.146 271.991C441.608 260.743 454.812 245.023 460.332 227.277C461.31 226.229 461.589 227.277 461.729 228.325C462.078 231.26 461.519 234.194 461.03 237.059L480.592 241.6L481.361 250.263L500.154 255.573V393.556C491.91 391.739 483.597 389.992 475.213 388.805C443.285 384.264 405.208 383.635 373.769 391.25C367.342 392.787 361.124 395.232 354.766 397.049C354.626 398.306 356.233 397.678 357.002 397.538C361.962 396.909 367.481 395.093 372.581 394.254C373.56 396.071 371.254 398.726 370.136 400.193C360.006 413.327 341.282 415.563 328.567 404.734C327.169 403.546 319.764 395.721 321.231 394.254C325.562 394.604 329.964 396.49 334.226 396.979C338.487 397.468 337.37 397.678 337.3 396.35C324.934 392.088 312.148 388.944 299.154 387.338C266.177 383.216 229.289 385.87 197.221 394.184L196.173 255.643L215.106 250.682L215.875 241.32L235.367 237.757V212.606C264.78 213.025 296.708 215.61 322.698 230.421C332.479 236.011 342.051 243.626 347.151 253.826C352.391 245.722 358.329 239.643 366.363 234.264C383.271 222.876 405.837 216.379 426.098 214.702L421.207 225.181L436.927 221.688C436.927 226.579 433.783 232.657 431.338 237.059C426.517 245.722 421.696 250.193 414.919 256.621L415.618 248.237C404.44 249.983 395.497 254.385 388.022 262.908C380.546 271.432 383.69 268.009 384.179 268.498C392.982 261.651 403.811 257.808 414.919 256.621ZM418.413 224.483C384.668 228.256 353.788 249.425 347.849 284.567L357.63 268.148C371.464 250.333 392.982 241.181 414.919 238.106L418.343 224.413L418.413 224.483ZM342.26 330.677C338.907 314.469 331.431 298.959 319.205 287.71C302.228 272.061 278.264 265.773 264.012 247.189C249.759 228.605 255.488 233.146 253.183 225.181C244.519 247.538 258.632 263.956 276.657 275.065C299.992 289.457 320.043 292.601 335.833 318.591L342.26 330.677ZM235.367 246.141L224.189 248.237V368.404C253.811 366.099 283.713 370.5 311.869 379.583L340.164 392.158L320.812 378.325C295.101 363.304 265.339 355.13 235.367 355.829V246.141ZM472.907 248.237L461.729 246.141V355.829C424.002 355.409 383.9 366.797 355.534 392.158C364.128 387.966 372.721 383.565 381.734 380.281C410.378 369.941 442.586 365.959 472.907 368.404V248.237ZM350.644 357.226C353.229 353.663 354.906 349.331 357.351 345.419C373.629 318.8 390.886 315.307 416.806 302.871C437.416 292.95 456 279.117 448.455 253.127L443.913 262.908C429.242 289.457 397.593 292.95 376.145 311.814C362.94 323.481 353.928 339.899 350.644 357.226ZM215.805 259.415L204.627 261.511V378.884C208.26 377.626 212.661 377.766 215.805 375.74V259.415ZM492.469 378.185V263.258C492.469 260.254 483.736 259.555 481.291 259.415V376.089L492.469 378.185ZM344.356 361.418C341.352 348.283 334.854 333.891 325.493 324.04C303.555 300.775 267.365 302.382 251.506 270.174L247.943 261.511C244.659 274.017 246.545 285.405 254.929 295.396C275.4 319.918 316.061 314.958 334.156 344.021L344.356 361.418ZM353.438 379.583C361.193 369.871 368.809 361.418 379.778 355.27C400.457 343.672 432.386 342.415 446.079 320.966C459.773 299.518 451.878 304.129 450.551 293.649L446.219 302.242C429.731 330.887 395.497 330.258 373.001 349.89C364.617 357.156 356.093 368.684 353.438 379.583ZM342.26 381.679C338.418 370.989 330.523 360.719 321.65 353.733C298.525 335.498 266.457 341.087 249.969 310.836L246.615 303.36C242.354 323.761 253.252 338.991 271.557 346.537C285.6 352.335 301.04 352.894 315.013 358.973C326.61 364.003 334.645 371.828 342.26 381.679Z" fill="white"/>
<path d="M467.108 414.725C467.877 415.493 468.925 417.589 469.135 418.637C472.907 435.265 443.005 446.094 436.578 458.879C436.158 460.346 437.416 459.927 438.324 459.927C453.555 460.346 474.305 449.378 484.016 437.85C493.727 426.322 496.382 413.816 503.229 401.869C507.91 393.695 516.014 384.683 526.354 389.294C518.11 430.654 500.713 469.149 459.773 486.266C437.346 495.628 408.003 498.003 394.938 521.338C388.65 532.586 387.882 545.721 391.096 558.087L390.467 559.415C379.428 561.441 368.18 564.026 356.862 562.908C352.67 540.551 352.46 513.723 358.329 491.646C368.809 452.731 392.842 448.819 423.722 431.981C432.386 427.3 439.931 420.593 448.385 416.122C456.838 411.651 462.008 409.415 467.039 414.655L467.108 414.725Z" fill="white"/>
<path d="M258.422 459.927C252.973 445.535 222.861 436.802 225.656 419.126C226.424 414.305 230.546 412.279 235.018 412.419C243.891 412.698 260.588 426.602 269.112 431.422C282.596 439.038 299.014 444.138 311.45 453.36C343.448 477.184 342.679 527.696 337.3 563.257C325.982 563.816 314.943 561.091 303.835 559.834C306.42 545.162 305.372 528.534 296.01 516.308C278.963 493.881 247.104 493.532 223.7 480.328C190.374 461.604 177.589 425.414 168.297 390.342C170.463 386.29 177.379 388.036 180.873 389.643C191.702 394.673 199.037 419.825 205.675 430.514C216.853 448.469 237.184 459.508 258.353 459.927H258.422Z" fill="white"/>
<path d="M407.933 208.414C369.438 196.118 326.96 196.607 288.185 207.645L272.395 155.037C272.675 153.291 294.333 144.767 297.617 143.719C329.475 133.659 373.35 134.707 404.719 146.374C436.088 158.041 422.884 153.85 423.303 155.666L408.073 208.344L407.933 208.414ZM352.74 148.33H340.863V162.303H327.938C325.842 164.958 327.169 169.709 327.03 172.993L327.938 174.18H340.514L341.561 175.228V188.852H352.74V174.18H366.713V162.303H352.74V148.33Z" fill="white"/>
<path d="M472.209 216.798L458.864 214.981C456.768 228.814 451.04 241.32 442.097 252.079C415.199 284.567 377.053 285.684 355.115 323.062C354.556 323.97 354.5 324 353.369 324.459C355.255 315.167 360.495 306.085 366.643 298.959C379.498 283.938 398.501 276.602 413.452 264.026C428.613 251.241 440.42 235.591 443.494 215.47C442.865 214.842 431.058 220.081 429.172 220.361C427.286 220.64 427.984 220.361 428.124 219.313L447.337 182.634L472.139 216.868L472.209 216.798Z" fill="white"/>
<path d="M472.907 248.237V368.404C442.586 365.959 410.308 369.941 381.734 380.281C372.721 383.565 364.128 388.036 355.534 392.158C383.9 366.797 424.002 355.409 461.729 355.829V246.141L472.907 248.237Z" fill="#69BAE4"/>
<path d="M235.367 246.141V355.829C265.339 355.13 295.101 363.304 320.812 378.325L340.164 392.158L311.869 379.583C283.713 370.5 253.811 366.099 224.189 368.404V248.237L235.367 246.141Z" fill="#69BAE4"/>
<path d="M350.644 357.226C353.928 339.969 362.94 323.481 376.145 311.814C397.593 292.95 429.242 289.457 443.913 262.909L448.455 253.127C456 279.047 437.416 292.95 416.806 302.871C390.886 315.307 373.629 318.8 357.351 345.419C354.244 350.5 353.5 353.5 350.644 357.226Z" fill="#2F6191"/>
<path d="M215.805 259.415V375.74C212.661 377.766 208.26 377.626 204.627 378.884V261.511L215.805 259.415Z" fill="#2F6191"/>
<path d="M492.469 378.185L481.291 376.089V259.415C483.666 259.555 492.469 260.254 492.469 263.258V378.185Z" fill="#2F6191"/>
<path d="M344.356 361.418L334.156 344.021C316.061 314.958 275.33 319.988 254.929 295.396C246.615 285.405 244.659 274.017 247.943 261.511L251.506 270.174C267.365 302.382 303.555 300.775 325.493 324.04C334.785 333.961 341.352 348.283 344.356 361.418Z" fill="#2F6191"/>
<path d="M342.26 330.677L335.833 318.591C319.973 292.601 299.992 289.457 276.657 275.065C258.632 263.956 244.519 247.538 253.183 225.182C255.488 233.146 258.981 240.622 264.012 247.189C278.264 265.773 302.228 272.061 319.205 287.71C331.431 299.029 338.907 314.469 342.26 330.677Z" fill="#69BAE4"/>
<path d="M353.438 379.583C356.023 368.684 364.617 357.156 373.001 349.89C395.497 330.258 429.731 330.887 446.219 302.242L450.55 293.649C451.878 304.129 451.948 311.884 446.079 320.966C432.386 342.345 400.457 343.672 379.777 355.27C359.098 366.867 361.193 369.941 353.438 379.583Z" fill="#69BAE4"/>
<path d="M342.26 381.679C334.645 371.828 326.61 364.003 315.013 358.973C300.97 352.894 285.53 352.335 271.557 346.537C253.252 338.991 242.284 323.831 246.615 303.36L249.969 310.836C266.457 341.017 298.525 335.428 321.65 353.733C330.523 360.719 338.418 370.989 342.26 381.679Z" fill="#69BAE4"/>
<path d="M418.413 224.483L414.989 238.176C392.982 241.181 371.533 250.403 357.7 268.218L347.919 284.636C353.858 249.564 384.738 228.325 418.483 224.553L418.413 224.483Z" fill="#69BAE4"/>
<path d="M415.964 247L415.218 257.057C403.99 258.605 392.048 260.358 384.99 269.539L380 278C383.03 259.926 398.784 248.98 416 247.036L415.964 247Z" fill="#69BAE4"/>
<path d="M352.74 148.33V162.303H366.713V174.18H352.74V188.852H341.562V175.228L340.514 174.18H327.938L327.03 172.993C327.239 169.639 325.842 164.958 327.938 162.303H340.863V148.33H352.74Z" fill="#2F6191"/>
</svg>
